<svg width="15" height="15" viewBox="0 0 15 15" fill="none" xmlns="http://www.w3.org/2000/svg">
<g clip-path="url(#clip0_71_21)">
<path fill-rule="evenodd" clip-rule="evenodd" d="M2.5 7.5C2.50009 6.53778 2.77782 5.59603 3.29987 4.78774C3.82191 3.97945 4.5661 3.33896 5.44313 2.94313C6.32016 2.5473 7.29278 2.41294 8.24427 2.55617C9.19577 2.6994 10.0857 3.11414 10.8074 3.75062C11.529 4.3871 12.0517 5.21829 12.3126 6.14444C12.5736 7.0706 12.5617 8.05238 12.2786 8.97198C11.9954 9.89159 11.4529 10.7099 10.7161 11.3289C9.97936 11.9478 9.07967 12.341 8.125 12.4612V8.75H9.375C9.54076 8.75 9.69973 8.68415 9.81694 8.56694C9.93415 8.44973 10 8.29076 10 8.125C10 7.95924 9.93415 7.80027 9.81694 7.68306C9.69973 7.56585 9.54076 7.5 9.375 7.5H8.125V6.25C8.125 6.08424 8.19085 5.92527 8.30806 5.80806C8.42527 5.69085 8.58424 5.625 8.75 5.625H9.0625C9.22826 5.625 9.38723 5.55915 9.50444 5.44194C9.62165 5.32473 9.6875 5.16576 9.6875 5C9.6875 4.83424 9.62165 4.67527 9.50444 4.55806C9.38723 4.44085 9.22826 4.375 9.0625 4.375H8.75C8.25272 4.375 7.77581 4.57254 7.42417 4.92417C7.07254 5.27581 6.875 5.75272 6.875 6.25V7.5H5.625C5.45924 7.5 5.30027 7.56585 5.18306 7.68306C5.06585 7.80027 5 7.95924 5 8.125C5 8.29076 5.06585 8.44973 5.18306 8.56694C5.30027 8.68415 5.45924 8.75 5.625 8.75H6.875V12.4612C5.66669 12.3089 4.55551 11.7208 3.75 10.8073C2.94449 9.89389 2.50002 8.71788 2.5 7.5ZM7.5 13.75C10.9519 13.75 13.75 10.9519 13.75 7.5C13.75 4.04813 10.9519 1.25 7.5 1.25C4.04813 1.25 1.25 4.04813 1.25 7.5C1.25 10.9519 4.04813 13.75 7.5 13.75Z" fill="#509990"/>
</g>
<defs>
<clipPath id="clip0_71_21">
<rect width="15" height="15" fill="white"/>
</clipPath>
</defs>
</svg>
