<svg width="15" height="15" viewBox="0 0 15 15" fill="none" xmlns="http://www.w3.org/2000/svg">
<path d="M4.875 1.25H10.125C12.125 1.25 13.75 2.875 13.75 4.875V10.125C13.75 11.0864 13.3681 12.0084 12.6883 12.6883C12.0084 13.3681 11.0864 13.75 10.125 13.75H4.875C2.875 13.75 1.25 12.125 1.25 10.125V4.875C1.25 3.91359 1.63192 2.99156 2.31174 2.31174C2.99156 1.63192 3.91359 1.25 4.875 1.25ZM4.75 2.5C4.15326 2.5 3.58097 2.73705 3.15901 3.15901C2.73705 3.58097 2.5 4.15326 2.5 4.75V10.25C2.5 11.4938 3.50625 12.5 4.75 12.5H10.25C10.8467 12.5 11.419 12.2629 11.841 11.841C12.2629 11.419 12.5 10.8467 12.5 10.25V4.75C12.5 3.50625 11.4938 2.5 10.25 2.5H4.75ZM10.7813 3.4375C10.9885 3.4375 11.1872 3.51981 11.3337 3.66632C11.4802 3.81284 11.5625 4.01155 11.5625 4.21875C11.5625 4.42595 11.4802 4.62466 11.3337 4.77118C11.1872 4.91769 10.9885 5 10.7813 5C10.5741 5 10.3753 4.91769 10.2288 4.77118C10.0823 4.62466 10 4.42595 10 4.21875C10 4.01155 10.0823 3.81284 10.2288 3.66632C10.3753 3.51981 10.5741 3.4375 10.7813 3.4375ZM7.5 4.375C8.3288 4.375 9.12366 4.70424 9.70971 5.29029C10.2958 5.87634 10.625 6.6712 10.625 7.5C10.625 8.3288 10.2958 9.12366 9.70971 9.70971C9.12366 10.2958 8.3288 10.625 7.5 10.625C6.6712 10.625 5.87634 10.2958 5.29029 9.70971C4.70424 9.12366 4.375 8.3288 4.375 7.5C4.375 6.6712 4.70424 5.87634 5.29029 5.29029C5.87634 4.70424 6.6712 4.375 7.5 4.375ZM7.5 5.625C7.00272 5.625 6.52581 5.82254 6.17418 6.17418C5.82254 6.52581 5.625 7.00272 5.625 7.5C5.625 7.99728 5.82254 8.4742 6.17418 8.82583C6.52581 9.17746 7.00272 9.375 7.5 9.375C7.99728 9.375 8.4742 9.17746 8.82583 8.82583C9.17746 8.4742 9.375 7.99728 9.375 7.5C9.375 7.00272 9.17746 6.52581 8.82583 6.17418C8.4742 5.82254 7.99728 5.625 7.5 5.625Z" fill="#509990"/>
</svg>
