<svg width="15" height="15" viewBox="0 0 15 15" fill="none" xmlns="http://www.w3.org/2000/svg">
<path d="M11.9063 3.06879C11.3333 2.48999 10.6507 2.03108 9.89852 1.71882C9.14631 1.40656 8.33945 1.2472 7.525 1.25004C4.1125 1.25004 1.33125 4.03129 1.33125 7.44379C1.33125 8.53754 1.61875 9.60004 2.15625 10.5375L1.28125 13.75L4.5625 12.8875C5.46875 13.3813 6.4875 13.6438 7.525 13.6438C10.9375 13.6438 13.7188 10.8625 13.7188 7.45004C13.7188 5.79379 13.075 4.23754 11.9063 3.06879ZM7.525 12.5938C6.6 12.5938 5.69375 12.3438 4.9 11.875L4.7125 11.7625L2.7625 12.275L3.28125 10.375L3.15625 10.1813C2.64234 9.36064 2.36946 8.41206 2.36875 7.44379C2.36875 4.60629 4.68125 2.29379 7.51875 2.29379C8.89375 2.29379 10.1875 2.83129 11.1563 3.80629C11.6359 4.28376 12.0161 4.8517 12.2746 5.47718C12.5332 6.10265 12.665 6.77323 12.6625 7.45004C12.675 10.2875 10.3625 12.5938 7.525 12.5938ZM10.35 8.74379C10.1938 8.66879 9.43125 8.29379 9.29375 8.23754C9.15 8.18754 9.05 8.16254 8.94375 8.31254C8.8375 8.46879 8.54375 8.81879 8.45625 8.91879C8.36875 9.02504 8.275 9.03754 8.11875 8.95629C7.9625 8.88129 7.4625 8.71254 6.875 8.18754C6.4125 7.77504 6.10625 7.26879 6.0125 7.11254C5.925 6.95629 6 6.87504 6.08125 6.79379C6.15 6.72504 6.2375 6.61254 6.3125 6.52504C6.3875 6.43754 6.41875 6.36879 6.46875 6.26879C6.51875 6.16254 6.49375 6.07504 6.45625 6.00004C6.41875 5.92504 6.10625 5.16254 5.98125 4.85004C5.85625 4.55004 5.725 4.58754 5.63125 4.58129H5.33125C5.225 4.58129 5.0625 4.61879 4.91875 4.77504C4.78125 4.93129 4.38125 5.30629 4.38125 6.06879C4.38125 6.83129 4.9375 7.56879 5.0125 7.66879C5.0875 7.77504 6.10625 9.33754 7.65625 10.0063C8.025 10.1688 8.3125 10.2625 8.5375 10.3313C8.90625 10.45 9.24375 10.4313 9.5125 10.3938C9.8125 10.35 10.4313 10.0188 10.5563 9.65629C10.6875 9.29379 10.6875 8.98754 10.6438 8.91879C10.6 8.85004 10.5063 8.81879 10.35 8.74379Z" fill="#509990"/>
</svg>
