<svg width="49" height="22" viewBox="0 0 49 22" fill="none" xmlns="http://www.w3.org/2000/svg">
<path d="M10.72 6.768V18H7.984V13.376H3.728V18H0.992V6.768H3.728V11.168H7.984V6.768H10.72ZM12.5511 13.52C12.5511 12.6027 12.7218 11.7973 13.0631 11.104C13.4151 10.4107 13.8898 9.87733 14.4871 9.504C15.0845 9.13067 15.7511 8.944 16.4871 8.944C17.1165 8.944 17.6658 9.072 18.1351 9.328C18.6151 9.584 18.9831 9.92 19.2391 10.336V9.072H21.9751V18H19.2391V16.736C18.9725 17.152 18.5991 17.488 18.1191 17.744C17.6498 18 17.1005 18.128 16.4711 18.128C15.7458 18.128 15.0845 17.9413 14.4871 17.568C13.8898 17.184 13.4151 16.6453 13.0631 15.952C12.7218 15.248 12.5511 14.4373 12.5511 13.52ZM19.2391 13.536C19.2391 12.8533 19.0471 12.3147 18.6631 11.92C18.2898 11.5253 17.8311 11.328 17.2871 11.328C16.7431 11.328 16.2791 11.5253 15.8951 11.92C15.5218 12.304 15.3351 12.8373 15.3351 13.52C15.3351 14.2027 15.5218 14.7467 15.8951 15.152C16.2791 15.5467 16.7431 15.744 17.2871 15.744C17.8311 15.744 18.2898 15.5467 18.6631 15.152C19.0471 14.7573 19.2391 14.2187 19.2391 13.536ZM29.7945 8.976C30.8398 8.976 31.6718 9.31733 32.2905 10C32.9198 10.672 33.2345 11.6 33.2345 12.784V18H30.5145V13.152C30.5145 12.5547 30.3598 12.0907 30.0505 11.76C29.7412 11.4293 29.3252 11.264 28.8025 11.264C28.2798 11.264 27.8638 11.4293 27.5545 11.76C27.2452 12.0907 27.0905 12.5547 27.0905 13.152V18H24.3545V9.072H27.0905V10.256C27.3678 9.86133 27.7412 9.552 28.2105 9.328C28.6798 9.09333 29.2078 8.976 29.7945 8.976ZM34.9918 13.52C34.9918 12.6027 35.1624 11.7973 35.5038 11.104C35.8558 10.4107 36.3304 9.87733 36.9278 9.504C37.5251 9.13067 38.1918 8.944 38.9278 8.944C39.5571 8.944 40.1064 9.072 40.5758 9.328C41.0558 9.584 41.4238 9.92 41.6798 10.336V9.072H44.4158V18H41.6798V16.736C41.4131 17.152 41.0398 17.488 40.5598 17.744C40.0904 18 39.5411 18.128 38.9118 18.128C38.1864 18.128 37.5251 17.9413 36.9278 17.568C36.3304 17.184 35.8558 16.6453 35.5038 15.952C35.1624 15.248 34.9918 14.4373 34.9918 13.52ZM41.6798 13.536C41.6798 12.8533 41.4878 12.3147 41.1038 11.92C40.7304 11.5253 40.2718 11.328 39.7278 11.328C39.1838 11.328 38.7198 11.5253 38.3358 11.92C37.9624 12.304 37.7758 12.8373 37.7758 13.52C37.7758 14.2027 37.9624 14.7467 38.3358 15.152C38.7198 15.5467 39.1838 15.744 39.7278 15.744C40.2718 15.744 40.7304 15.5467 41.1038 15.152C41.4878 14.7573 41.6798 14.2187 41.6798 13.536Z" fill="#BDFF00"/>
</svg>
