<svg width="101" height="35" viewBox="0 0 101 35" fill="none" xmlns="http://www.w3.org/2000/svg">
<path d="M10.72 6.768V18H7.984V13.376H3.728V18H0.992V6.768H3.728V11.168H7.984V6.768H10.72ZM12.5511 13.52C12.5511 12.6027 12.7218 11.7973 13.0631 11.104C13.4151 10.4107 13.8898 9.87733 14.4871 9.504C15.0845 9.13067 15.7511 8.944 16.4871 8.944C17.1165 8.944 17.6658 9.072 18.1351 9.328C18.6151 9.584 18.9831 9.92 19.2391 10.336V9.072H21.9751V18H19.2391V16.736C18.9725 17.152 18.5991 17.488 18.1191 17.744C17.6498 18 17.1005 18.128 16.4711 18.128C15.7458 18.128 15.0845 17.9413 14.4871 17.568C13.8898 17.184 13.4151 16.6453 13.0631 15.952C12.7218 15.248 12.5511 14.4373 12.5511 13.52ZM19.2391 13.536C19.2391 12.8533 19.0471 12.3147 18.6631 11.92C18.2898 11.5253 17.8311 11.328 17.2871 11.328C16.7431 11.328 16.2791 11.5253 15.8951 11.92C15.5218 12.304 15.3351 12.8373 15.3351 13.52C15.3351 14.2027 15.5218 14.7467 15.8951 15.152C16.2791 15.5467 16.7431 15.744 17.2871 15.744C17.8311 15.744 18.2898 15.5467 18.6631 15.152C19.0471 14.7573 19.2391 14.2187 19.2391 13.536ZM29.7945 8.976C30.8398 8.976 31.6718 9.31733 32.2905 10C32.9198 10.672 33.2345 11.6 33.2345 12.784V18H30.5145V13.152C30.5145 12.5547 30.3598 12.0907 30.0505 11.76C29.7412 11.4293 29.3252 11.264 28.8025 11.264C28.2798 11.264 27.8638 11.4293 27.5545 11.76C27.2452 12.0907 27.0905 12.5547 27.0905 13.152V18H24.3545V9.072H27.0905V10.256C27.3678 9.86133 27.7412 9.552 28.2105 9.328C28.6798 9.09333 29.2078 8.976 29.7945 8.976ZM34.9918 13.52C34.9918 12.6027 35.1624 11.7973 35.5038 11.104C35.8558 10.4107 36.3304 9.87733 36.9278 9.504C37.5251 9.13067 38.1918 8.944 38.9278 8.944C39.5571 8.944 40.1064 9.072 40.5758 9.328C41.0558 9.584 41.4238 9.92 41.6798 10.336V9.072H44.4158V18H41.6798V16.736C41.4131 17.152 41.0398 17.488 40.5598 17.744C40.0904 18 39.5411 18.128 38.9118 18.128C38.1864 18.128 37.5251 17.9413 36.9278 17.568C36.3304 17.184 35.8558 16.6453 35.5038 15.952C35.1624 15.248 34.9918 14.4373 34.9918 13.52ZM41.6798 13.536C41.6798 12.8533 41.4878 12.3147 41.1038 11.92C40.7304 11.5253 40.2718 11.328 39.7278 11.328C39.1838 11.328 38.7198 11.5253 38.3358 11.92C37.9624 12.304 37.7758 12.8373 37.7758 13.52C37.7758 14.2027 37.9624 14.7467 38.3358 15.152C38.7198 15.5467 39.1838 15.744 39.7278 15.744C40.2718 15.744 40.7304 15.5467 41.1038 15.152C41.4878 14.7573 41.6798 14.2187 41.6798 13.536Z" fill="#BDFF00"/>
<path d="M6.72 31L4.384 26.76H3.728V31H0.992V19.768H5.584C6.46933 19.768 7.22133 19.9227 7.84 20.232C8.46933 20.5413 8.93867 20.968 9.248 21.512C9.55733 22.0453 9.712 22.6427 9.712 23.304C9.712 24.0507 9.49867 24.7173 9.072 25.304C8.656 25.8907 8.03733 26.3067 7.216 26.552L9.808 31H6.72ZM3.728 24.824H5.424C5.92533 24.824 6.29867 24.7013 6.544 24.456C6.8 24.2107 6.928 23.864 6.928 23.416C6.928 22.9893 6.8 22.6533 6.544 22.408C6.29867 22.1627 5.92533 22.04 5.424 22.04H3.728V24.824ZM20.2455 26.392C20.2455 26.648 20.2295 26.9147 20.1975 27.192H14.0055C14.0482 27.7467 14.2242 28.1733 14.5335 28.472C14.8535 28.76 15.2428 28.904 15.7015 28.904C16.3842 28.904 16.8588 28.616 17.1255 28.04H20.0375C19.8882 28.6267 19.6162 29.1547 19.2215 29.624C18.8375 30.0933 18.3522 30.4613 17.7655 30.728C17.1788 30.9947 16.5228 31.128 15.7975 31.128C14.9228 31.128 14.1442 30.9413 13.4615 30.568C12.7788 30.1947 12.2455 29.6613 11.8615 28.968C11.4775 28.2747 11.2855 27.464 11.2855 26.536C11.2855 25.608 11.4722 24.7973 11.8455 24.104C12.2295 23.4107 12.7628 22.8773 13.4455 22.504C14.1282 22.1307 14.9122 21.944 15.7975 21.944C16.6615 21.944 17.4295 22.1253 18.1015 22.488C18.7735 22.8507 19.2962 23.368 19.6695 24.04C20.0535 24.712 20.2455 25.496 20.2455 26.392ZM17.4455 25.672C17.4455 25.2027 17.2855 24.8293 16.9655 24.552C16.6455 24.2747 16.2455 24.136 15.7655 24.136C15.3068 24.136 14.9175 24.2693 14.5975 24.536C14.2882 24.8027 14.0962 25.1813 14.0215 25.672H17.4455ZM25.7209 31.128C24.9422 31.128 24.2489 30.9947 23.6409 30.728C23.0329 30.4613 22.5529 30.0987 22.2009 29.64C21.8489 29.1707 21.6515 28.648 21.6089 28.072H24.3129C24.3449 28.3813 24.4889 28.632 24.7449 28.824C25.0009 29.016 25.3155 29.112 25.6889 29.112C26.0302 29.112 26.2915 29.048 26.4729 28.92C26.6649 28.7813 26.7609 28.6053 26.7609 28.392C26.7609 28.136 26.6275 27.9493 26.3609 27.832C26.0942 27.704 25.6622 27.5653 25.0649 27.416C24.4249 27.2667 23.8915 27.112 23.4649 26.952C23.0382 26.7813 22.6702 26.52 22.3609 26.168C22.0515 25.8053 21.8969 25.32 21.8969 24.712C21.8969 24.2 22.0355 23.736 22.3129 23.32C22.6009 22.8933 23.0169 22.5573 23.5609 22.312C24.1155 22.0667 24.7715 21.944 25.5289 21.944C26.6489 21.944 27.5289 22.2213 28.1689 22.776C28.8195 23.3307 29.1929 24.0667 29.2889 24.984H26.7609C26.7182 24.6747 26.5795 24.4293 26.3449 24.248C26.1209 24.0667 25.8222 23.976 25.4489 23.976C25.1289 23.976 24.8835 24.04 24.7129 24.168C24.5422 24.2853 24.4569 24.4507 24.4569 24.664C24.4569 24.92 24.5902 25.112 24.8569 25.24C25.1342 25.368 25.5609 25.496 26.1369 25.624C26.7982 25.7947 27.3369 25.9653 27.7529 26.136C28.1689 26.296 28.5315 26.5627 28.8409 26.936C29.1609 27.2987 29.3262 27.7893 29.3369 28.408C29.3369 28.9307 29.1875 29.4 28.8889 29.816C28.6009 30.2213 28.1795 30.5413 27.6249 30.776C27.0809 31.0107 26.4462 31.128 25.7209 31.128ZM36.3868 28.68V31H34.9948C34.0028 31 33.2294 30.76 32.6748 30.28C32.1201 29.7893 31.8428 28.9947 31.8428 27.896V24.344H30.7548V22.072H31.8428V19.896H34.5788V22.072H36.3708V24.344H34.5788V27.928C34.5788 28.1947 34.6428 28.3867 34.7708 28.504C34.8988 28.6213 35.1121 28.68 35.4108 28.68H36.3868ZM37.7667 26.52C37.7667 25.6027 37.9374 24.7973 38.2787 24.104C38.6307 23.4107 39.1054 22.8773 39.7027 22.504C40.3001 22.1307 40.9667 21.944 41.7027 21.944C42.3321 21.944 42.8814 22.072 43.3507 22.328C43.8307 22.584 44.1987 22.92 44.4547 23.336V22.072H47.1907V31H44.4547V29.736C44.1881 30.152 43.8147 30.488 43.3347 30.744C42.8654 31 42.3161 31.128 41.6867 31.128C40.9614 31.128 40.3001 30.9413 39.7027 30.568C39.1054 30.184 38.6307 29.6453 38.2787 28.952C37.9374 28.248 37.7667 27.4373 37.7667 26.52ZM44.4547 26.536C44.4547 25.8533 44.2627 25.3147 43.8787 24.92C43.5054 24.5253 43.0467 24.328 42.5027 24.328C41.9587 24.328 41.4947 24.5253 41.1107 24.92C40.7374 25.304 40.5507 25.8373 40.5507 26.52C40.5507 27.2027 40.7374 27.7467 41.1107 28.152C41.4947 28.5467 41.9587 28.744 42.5027 28.744C43.0467 28.744 43.5054 28.5467 43.8787 28.152C44.2627 27.7573 44.4547 27.2187 44.4547 26.536ZM58.3861 22.072V31H55.6501V29.784C55.3728 30.1787 54.9941 30.4987 54.5141 30.744C54.0448 30.9787 53.5221 31.096 52.9461 31.096C52.2635 31.096 51.6608 30.9467 51.1381 30.648C50.6155 30.3387 50.2101 29.896 49.9221 29.32C49.6341 28.744 49.4901 28.0667 49.4901 27.288V22.072H52.2101V26.92C52.2101 27.5173 52.3648 27.9813 52.6741 28.312C52.9835 28.6427 53.3995 28.808 53.9221 28.808C54.4555 28.808 54.8768 28.6427 55.1861 28.312C55.4955 27.9813 55.6501 27.5173 55.6501 26.92V22.072H58.3861ZM63.4874 23.56C63.8074 23.0693 64.2074 22.6853 64.6874 22.408C65.1674 22.12 65.7007 21.976 66.2874 21.976V24.872H65.5354C64.8527 24.872 64.3407 25.0213 63.9994 25.32C63.658 25.608 63.4874 26.12 63.4874 26.856V31H60.7514V22.072H63.4874V23.56ZM67.4511 26.52C67.4511 25.6027 67.6218 24.7973 67.9631 24.104C68.3151 23.4107 68.7898 22.8773 69.3871 22.504C69.9845 22.1307 70.6511 21.944 71.3871 21.944C72.0165 21.944 72.5658 22.072 73.0351 22.328C73.5151 22.584 73.8831 22.92 74.1391 23.336V22.072H76.8751V31H74.1391V29.736C73.8725 30.152 73.4991 30.488 73.0191 30.744C72.5498 31 72.0005 31.128 71.3711 31.128C70.6458 31.128 69.9845 30.9413 69.3871 30.568C68.7898 30.184 68.3151 29.6453 67.9631 28.952C67.6218 28.248 67.4511 27.4373 67.4511 26.52ZM74.1391 26.536C74.1391 25.8533 73.9471 25.3147 73.5631 24.92C73.1898 24.5253 72.7311 24.328 72.1871 24.328C71.6431 24.328 71.1791 24.5253 70.7951 24.92C70.4218 25.304 70.2351 25.8373 70.2351 26.52C70.2351 27.2027 70.4218 27.7467 70.7951 28.152C71.1791 28.5467 71.6431 28.744 72.1871 28.744C72.7311 28.744 73.1898 28.5467 73.5631 28.152C73.9471 27.7573 74.1391 27.2187 74.1391 26.536ZM84.6945 21.976C85.7398 21.976 86.5718 22.3173 87.1905 23C87.8198 23.672 88.1345 24.6 88.1345 25.784V31H85.4145V26.152C85.4145 25.5547 85.2598 25.0907 84.9505 24.76C84.6412 24.4293 84.2252 24.264 83.7025 24.264C83.1798 24.264 82.7638 24.4293 82.4545 24.76C82.1452 25.0907 81.9905 25.5547 81.9905 26.152V31H79.2545V22.072H81.9905V23.256C82.2678 22.8613 82.6412 22.552 83.1105 22.328C83.5798 22.0933 84.1078 21.976 84.6945 21.976ZM95.4117 28.68V31H94.0197C93.0277 31 92.2544 30.76 91.6997 30.28C91.1451 29.7893 90.8677 28.9947 90.8677 27.896V24.344H89.7797V22.072H90.8677V19.896H93.6037V22.072H95.3957V24.344H93.6037V27.928C93.6037 28.1947 93.6677 28.3867 93.7957 28.504C93.9237 28.6213 94.1371 28.68 94.4357 28.68H95.4117Z" fill="#509990"/>
</svg>
